<svg id="Layer_1" data-name="Layer 1" xmlns="http://www.w3.org/2000/svg" viewBox="0 0 897.69 833.49"><defs><style>.cls-1{fill:#e2bf14;}</style></defs><title>eCommerceLogo</title><path class="cls-1" d="M655.73,878.77c.11,30.85,24.81,55.57,55,55.06,29.49-.5,53.56-25.12,53.54-54.75,0-31.6-23.29-54.38-55.22-54.06C678.07,825.33,655.61,848,655.73,878.77Zm320.5-.64c-.15,30.86,24.41,56,54.52,55.7,28.78-.24,53.51-24.25,54-52.39.5-30.6-25.56-56.67-56.34-56.38C998.85,825.34,976.38,848.21,976.23,878.13Z" transform="translate(-325.83 -100.35)"/><path class="cls-1" d="M1223.52,405.27c-13.48,40.3-17.36,82.67-26.59,123.89-4.91,21.93-8.33,44.19-12.63,66.26-6.7,34.46-30.25,51.31-60.28,49.45-434,1.13-304,87.13-20.19,76,7.06,0,14.19-.24,21.19.56,16.22,1.86,28.43,15.62,28.39,31.27s-12.41,29.09-28.77,31c-5.72.66-11.56.44-17.34.44q-234.37,0-468.75,0c-34.06,0-41.13-6.1-48.07-39.2q-54.54-260.36-109-520.72c-3-14.33-9.18-22.07-23.61-26.09-32.79-9.14-65-20.2-97.65-30-16-4.85-30.61-10.69-33.85-29.82-3.1-18.29,8.27-28.49,21-38h27c42.09,16,85.8,26.76,128.93,39.3,21.88,6.36,33.67,18.9,37.35,41.16,4.72,28.52,11,56.78,16.08,85.25,2.29,12.88,6.74,20.57,22.18,20.11,15.94-.47,32,2.42,48,3.9,175.3,16.3,350.53,33.37,525.94,48.28,34.6,2.94,59.09,13.9,70.67,47.62Z" transform="translate(-325.83 -100.35)"/><path class="cls-1" d="M655.73,878.77c-.12-30.8,22.34-53.44,53.32-53.75,31.93-.32,55.2,22.46,55.22,54.06,0,29.63-24,54.25-53.54,54.75C680.54,934.34,655.84,909.62,655.73,878.77Z" transform="translate(-325.83 -100.35)"/><path class="cls-1" d="M976.23,878.13c.15-29.92,22.62-52.79,52.15-53.07,30.78-.29,56.84,25.78,56.34,56.38-.46,28.14-25.19,52.15-54,52.39C1000.64,934.09,976.08,909,976.23,878.13Z" transform="translate(-325.83 -100.35)"/><path d="M1022.76,700.82q-14.37,15.87-41.2,28.34T913.9,748.82Q873.09,756,818.66,756q-83.16,0-133.42-38.17T635,604.06a249.46,249.46,0,0,1,6.8-55.94q10.58-52.15,35.91-91.46t60.85-65a253.94,253.94,0,0,1,78.24-38.18A320.78,320.78,0,0,1,907.1,341q53.67,0,91.09,14.36t59.72,37q22.29,22.68,31.37,48.76a157.06,157.06,0,0,1,9.07,51.78,143.93,143.93,0,0,1-2.27,26.46q-7.56,34.77-27.59,49.13t-57.83,14.36H789.93a92.84,92.84,0,0,0-1.51,16.63q0,31,17,48.38t50.27,17.39a109.06,109.06,0,0,0,37.42-6.43q17.75-6.4,42.7-19.27a355.83,355.83,0,0,1,37-17,85.56,85.56,0,0,1,30.24-5.67q17.39,0,28,12.47a43.67,43.67,0,0,1,10.58,29.11v5.29a14.34,14.34,0,0,0-.75,4.53Q1037.1,684.95,1022.76,700.82Zm-70.3-195a111.79,111.79,0,0,0,2.26-21.92q0-27.21-16.25-39.69T895,431.71q-29.49,0-54.43,17.76t-34,56.32Z" transform="translate(-325.83 -100.35)"/></svg>